<?xml version="1.0" encoding="utf-8"?>
<!-- Generator: Adobe Illustrator 25.4.8, SVG ExportableReport Plug-In . SVG Version: 6.00 Build 0)  -->
<svg version="1.1" id="Layer_1" xmlns="http://www.w3.org/2000/svg" xmlns:xlink="http://www.w3.org/1999/xlink" x="0px" y="0px"
	 viewBox="0 0 60 60" style="enable-background:new 0 0 60 60;" xml:space="preserve">
<style type="text/css">
	.st0{fill:#FFFFFF;}
</style>
<g>
	<g>
		<circle class="st0" cx="30" cy="30" r="28"/>
	</g>
	<g>
		<path d="M50.5,35.1c-0.5-1-1.7-1.6-2.8-1.2L39,36.6v-0.4c0-1.3-1.1-2.3-2.3-2.3h-5.5c-0.1,0-0.2,0-0.3-0.1l-6.5-2.4
			c-0.3-0.1-0.5-0.1-0.8-0.1H19c-0.2-0.7-0.8-1.2-1.6-1.2H10c-0.4,0-0.8,0.3-0.8,0.8s0.3,0.8,0.8,0.8h7.4c0.1,0,0.1,0,0.1,0.1V42
			c0,0.4-0.4,0.8-0.8,0.8h-6.6c-0.4,0-0.8,0.3-0.8,0.8s0.3,0.8,0.8,0.8h6.6c1,0,1.9-0.7,2.2-1.6h2.4c0.1,0,0.2,0,0.3,0l10.2,3.5
			c0.2,0.1,0.5,0.1,0.8,0.1c0.4,0,0.7-0.1,1.1-0.3l15.8-8C50.6,37.5,51.1,36.2,50.5,35.1z M48.8,36.8l-15.8,8
			c-0.2,0.1-0.5,0.1-0.7,0l-10.2-3.5c-0.2-0.1-0.5-0.1-0.8-0.1H19v-8.4h4.5c0.1,0,0.2,0,0.3,0.1l6.5,2.4c0.3,0.1,0.5,0.1,0.8,0.1
			h5.5c0.5,0,0.8,0.4,0.8,0.8v0.6c0,0.4-0.4,0.8-0.8,0.8h-7.2c-1.3,0-2.3,1-2.3,2.4c0,0.4,0.3,0.7,0.8,0.7s0.8-0.4,0.8-0.8
			c0-0.5,0.4-0.8,0.8-0.8h7.2c0.7,0,1.3-0.3,1.7-0.8c0,0,0,0,0.1,0l9.7-3c0.4-0.1,0.8,0.1,1,0.4C49.4,36.1,49.2,36.6,48.8,36.8z"/>
		<path d="M30.7,27.4c0.1,0.1,0.3,0.2,0.5,0.2c0.2,0,0.4-0.1,0.6-0.3l10.5-12.5c0.3-0.3,0.2-0.8-0.1-1.1c-0.3-0.3-0.8-0.2-1.1,0.1
			L30.6,26.3C30.3,26.6,30.3,27.1,30.7,27.4z"/>
		<path d="M32.2,19.1c1.4,0,2.5-1.1,2.5-2.5s-1.1-2.5-2.5-2.5s-2.5,1.1-2.5,2.5S30.8,19.1,32.2,19.1z M32.2,15.6c0.6,0,1,0.5,1,1
			s-0.5,1-1,1s-1-0.5-1-1S31.7,15.6,32.2,15.6z"/>
		<path d="M40.2,22.4c-1.4,0-2.5,1.1-2.5,2.5c0,1.4,1.1,2.5,2.5,2.5s2.5-1.1,2.5-2.5C42.7,23.5,41.6,22.4,40.2,22.4z M40.2,25.9
			c-0.6,0-1-0.5-1-1c0-0.6,0.5-1,1-1s1,0.5,1,1C41.2,25.4,40.8,25.9,40.2,25.9z"/>
	</g>
</g>
</svg>
