<svg width="26" height="26" viewBox="0 0 26 26" fill="none" xmlns="http://www.w3.org/2000/svg">
<path d="M0.599609 7.33203H24.5996M22.7996 24.7321H2.3996C1.3996 24.7321 0.599609 23.932 0.599609 22.932V5.23206C0.599609 4.23206 1.3996 3.43204 2.3996 3.43204H22.8996C23.8996 3.43204 24.6996 4.23206 24.6996 5.23206V22.932C24.5996 23.932 23.7996 24.7321 22.7996 24.7321Z" stroke="#003366" stroke-width="1.2" stroke-miterlimit="10"/>
<path d="M4.29941 5.13205C3.79941 5.13205 3.39941 4.73206 3.39941 4.23206V1.23206C3.39941 0.732056 3.79941 0.332031 4.29941 0.332031C4.79941 0.332031 5.1994 0.732056 5.1994 1.23206V4.23206C5.1994 4.73206 4.79941 5.13205 4.29941 5.13205Z" fill="#003366"/>
<path d="M20.9996 5.13205C20.4996 5.13205 20.0996 4.73206 20.0996 4.23206V1.23206C20.0996 0.732056 20.4996 0.332031 20.9996 0.332031C21.4996 0.332031 21.8996 0.732056 21.8996 1.23206V4.23206C21.9996 4.73206 21.4996 5.13205 20.9996 5.13205Z" fill="#003366"/>
<path d="M6.1994 14.432H4.09943C3.69943 14.432 3.39941 14.1321 3.39941 13.7321V11.632C3.39941 11.232 3.69943 10.932 4.09943 10.932H6.1994C6.5994 10.932 6.89941 11.232 6.89941 11.632V13.7321C6.89941 14.1321 6.5994 14.432 6.1994 14.432Z" fill="#003366"/>
</svg>
