<?xml version="1.0" encoding="utf-8"?>
<!-- Generator: Adobe Illustrator 25.4.8, SVG ExportableReport Plug-In . SVG Version: 6.00 Build 0)  -->
<svg version="1.1" id="Layer_1" xmlns="http://www.w3.org/2000/svg" xmlns:xlink="http://www.w3.org/1999/xlink" x="0px" y="0px"
	 viewBox="0 0 26 26" style="enable-background:new 0 0 26 26;" xml:space="preserve">
<style type="text/css">
	.st0{fill:#003366;}
	.st1{fill:#FFFFFF;}
	.st2{fill:#00CC66;}
</style>
<g>
	<path class="st0" d="M24.5,15.9c-0.3,0-0.5,0.2-0.5,0.5v0.2h-0.5v-1.8h0.9c0.3,0,0.5-0.2,0.5-0.5V7.9c0-0.3-0.2-0.5-0.5-0.5h-0.9V7
		c0-1.1-0.9-2.1-2-2.1H4.5c-1.1,0-2,0.9-2,2.1v0.3H1.7c-0.3,0-0.5,0.2-0.5,0.5v6.4c0,0.3,0.2,0.5,0.5,0.5h0.9v1.8H2.1v-0.2
		c0-0.3-0.2-0.5-0.5-0.5S1,16.1,1,16.4v1.5c0,0.3,0.2,0.5,0.5,0.5s0.5-0.2,0.5-0.5v-0.2h1.7C3.4,18,3.2,18.5,3.2,19c0,1.1,0.9,2,2,2
		C6,21,6.6,20.7,7,20.1C7.3,20.7,8,21,8.7,21c1.1,0,2-0.9,2-2c0-0.5-0.2-1-0.5-1.3h5.4C15.2,18,15,18.5,15,19c0,1.1,0.9,2,2,2
		c0.7,0,1.3-0.4,1.7-0.9c0.4,0.6,1,0.9,1.7,0.9c1.1,0,2-0.9,2-2c0-0.5-0.2-1-0.5-1.3h2v0.2c0,0.3,0.2,0.5,0.5,0.5
		c0.3,0,0.5-0.2,0.5-0.5v-1.5C25,16.1,24.8,15.9,24.5,15.9z M23.8,8.4v5.4h-0.3V8.4H23.8z M3.6,7c0-0.6,0.4-1,0.9-1h16.9
		c0.5,0,0.9,0.5,0.9,1v0.9v6.4v2.3H3.6v-2.3V7.9V7z M2.2,13.8V8.4h0.4v5.4H2.2z M5.3,20c-0.5,0-1-0.4-1-1c0-0.5,0.4-1,1-1
		c0.5,0,1,0.4,1,1C6.2,19.6,5.8,20,5.3,20z M8.7,20c-0.5,0-1-0.4-1-1c0-0.5,0.4-1,1-1c0.5,0,1,0.4,1,1C9.6,19.6,9.2,20,8.7,20z
		 M7,17.9c-0.1-0.1-0.1-0.2-0.2-0.2h0.4C7.1,17.8,7,17.8,7,17.9z M17,20c-0.5,0-1-0.4-1-1c0-0.5,0.4-1,1-1c0.5,0,1,0.4,1,1
		C18,19.6,17.6,20,17,20z M20.4,20c-0.5,0-1-0.4-1-1c0-0.5,0.4-1,1-1c0.5,0,1,0.4,1,1C21.4,19.6,21,20,20.4,20z M18.7,17.9
		c-0.1-0.1-0.1-0.2-0.2-0.2h0.4C18.9,17.8,18.8,17.8,18.7,17.9z"/>
	<path class="st0" d="M8.6,9.1H5.3C5,9.1,4.8,9.3,4.8,9.6v4.3c0,0.3,0.2,0.5,0.5,0.5h3.3c0.3,0,0.5-0.2,0.5-0.5V9.6
		C9.2,9.3,8.9,9.1,8.6,9.1z M8.1,13.4H5.8v-3.3h2.3V13.4z"/>
	<path class="st0" d="M4.6,8h16.8c0.3,0,0.5-0.2,0.5-0.5c0-0.3-0.2-0.5-0.5-0.5H4.6C4.3,7,4.1,7.2,4.1,7.5C4.1,7.8,4.3,8,4.6,8z"/>
	<path class="st0" d="M14.6,9.1h-3.3c-0.3,0-0.5,0.2-0.5,0.5v4.3c0,0.3,0.2,0.5,0.5,0.5h3.3c0.3,0,0.5-0.2,0.5-0.5V9.6
		C15.1,9.3,14.9,9.1,14.6,9.1z M14.1,13.4h-2.3v-3.3h2.3V13.4z"/>
	<path class="st0" d="M20.6,9.1h-3.3c-0.3,0-0.5,0.2-0.5,0.5v4.3c0,0.3,0.2,0.5,0.5,0.5h3.3c0.3,0,0.5-0.2,0.5-0.5V9.6
		C21.1,9.3,20.9,9.1,20.6,9.1z M20.1,13.4h-2.3v-3.3h2.3V13.4z"/>
</g>
</svg>
