<?xml version="1.0" encoding="utf-8"?>
<!-- Generator: Adobe Illustrator 25.4.8, SVG ExportableReport Plug-In . SVG Version: 6.00 Build 0)  -->
<svg version="1.1" id="Layer_1" xmlns="http://www.w3.org/2000/svg" xmlns:xlink="http://www.w3.org/1999/xlink" x="0px" y="0px"
	 viewBox="0 0 100 100" style="enable-background:new 0 0 100 100;" xml:space="preserve">
<style type="text/css">
	.st0{fill:#FFFFFF;}
</style>
<g>
	<circle class="st0" cx="50" cy="50" r="48"/>
</g>
<g>
	<path d="M34,37.7c-8.6,0-15.6,7-15.6,15.6c0,8.4,14.4,24.3,15,24.9c0.3,0.4,0.9,0.4,1.2,0c0.6-0.7,15-16.5,15-24.9
		C49.6,44.7,42.6,37.7,34,37.7z M34.3,76.1L34,76.4l-0.3-0.3c-4.1-4.7-13.6-16.4-13.6-22.8c0-7.7,6.2-13.9,13.9-13.9
		s13.9,6.2,13.9,13.9C47.9,59.7,38.4,71.3,34.3,76.1z"/>
	<path d="M34,46.8c-3.2,0-5.7,2.6-5.7,5.7s2.6,5.7,5.7,5.7c3.2,0,5.7-2.6,5.7-5.7S37.1,46.8,34,46.8z M34,56.6
		c-2.2,0-4.1-1.8-4.1-4.1s1.8-4.1,4.1-4.1s4.1,1.8,4.1,4.1S36.2,56.6,34,56.6z"/>
	<path d="M70.8,20.8c-6,0-10.8,4.9-10.8,10.8c0,5.8,10,16.9,10.4,17.4c0.2,0.2,0.6,0.2,0.8,0c3.6-4,10.4-12.7,10.4-17.4
		C81.6,25.6,76.8,20.8,70.8,20.8z M71.1,47.4l-0.3,0.3l-0.3-0.3C68.3,44.9,61,36.2,61,31.6c0-5.4,4.4-9.8,9.8-9.8s9.8,4.4,9.8,9.8
		C80.5,36.2,73.3,44.9,71.1,47.4z"/>
	<path d="M70.8,27.1c-2.2,0-3.9,1.8-3.9,3.9s1.8,3.9,3.9,3.9s3.9-1.8,3.9-3.9S73,27.1,70.8,27.1z M70.8,33.9c-1.6,0-2.9-1.3-2.9-2.9
		c0-1.6,1.3-2.9,2.9-2.9c1.6,0,2.9,1.3,2.9,2.9C73.7,32.6,72.4,33.9,70.8,33.9z"/>
	<path d="M40.2,77.5l-1.9,1.6c-0.2,0.2-0.6,0.2-0.8-0.1c-0.2-0.2-0.2-0.6,0.1-0.8l1.9-1.6c0.2-0.2,0.6-0.2,0.8,0.1
		C40.4,76.9,40.4,77.2,40.2,77.5z"/>
	<path d="M47.9,70.5c0,0.2-0.1,0.3-0.2,0.4l-3.8,3.3c-0.2,0.2-0.6,0.2-0.8-0.1c-0.2-0.2-0.2-0.6,0.1-0.8l3.8-3.3
		c0.2-0.2,0.6-0.2,0.8,0.1C47.9,70.2,47.9,70.4,47.9,70.5z"/>
	<path d="M54.9,63.4c-0.1,0-0.3,0-0.4,0.1l-3.8,3.3c-0.2,0.2-0.3,0.6-0.1,0.8c0.2,0.2,0.6,0.3,0.8,0.1l3.8-3.3
		c0.2-0.2,0.3-0.6,0.1-0.8C55.2,63.4,55,63.4,54.9,63.4z"/>
	<path d="M55.3,63.6c-0.1-0.1-0.3-0.2-0.4-0.2c-0.1,0-0.3,0-0.4,0.1l-3.8,3.3c-0.2,0.2-0.3,0.6-0.1,0.8c0.2,0.2,0.6,0.3,0.8,0.1
		l3.8-3.3C55.5,64.2,55.5,63.8,55.3,63.6z"/>
	<path d="M62.8,57.9L59,61.1c-0.2,0.2-0.6,0.2-0.8-0.1c-0.2-0.2-0.2-0.6,0.1-0.8L62,57c0.2-0.2,0.6-0.2,0.8,0.1S63.1,57.7,62.8,57.9
		z"/>
	<path d="M67.7,52.1l-1.9,1.6c-0.1,0.1-0.2,0.2-0.2,0.4c0,0.2,0,0.3,0.1,0.4c0.2,0.2,0.5,0.4,0.8,0.1l1.9-1.6
		c0.1-0.1,0.2-0.2,0.2-0.4c0-0.2,0-0.3-0.1-0.4C68.3,51.9,67.9,51.9,67.7,52.1z"/>
	<path d="M68.5,53l-1.9,1.6c-0.4,0.3-0.7,0.2-0.8-0.1c-0.1-0.1-0.2-0.3-0.1-0.4c0-0.2,0.1-0.3,0.2-0.4l1.9-1.6
		c0.2-0.2,0.6-0.2,0.8,0.1c0.1,0.1,0.1,0.3,0.1,0.4C68.6,52.7,68.6,52.9,68.5,53z"/>
</g>
</svg>
