<?xml version="1.0" encoding="utf-8"?>
<!-- Generator: Adobe Illustrator 25.4.8, SVG ExportableReport Plug-In . SVG Version: 6.00 Build 0)  -->
<svg version="1.1" id="Layer_1" xmlns="http://www.w3.org/2000/svg" xmlns:xlink="http://www.w3.org/1999/xlink" x="0px" y="0px"
	 viewBox="0 0 60 60" style="enable-background:new 0 0 60 60;" xml:space="preserve">
<style type="text/css">
	.st0{fill:#FFFFFF;}
</style>
<g>
	<g>
		<circle class="st0" cx="30" cy="30" r="28"/>
	</g>
	<g>
		<path d="M49.8,24.8c0.6-0.4,1-1,1-1.8V18c0-1.1-0.9-2-1.9-2H19.2c0,0-0.1,0-0.1,0s-0.1,0-0.1,0h-7.9c-1,0-1.9,0.9-1.9,2V23
			c0,0.7,0.4,1.4,1,1.8c1.6,1.1,2.7,3.1,2.7,5.2c0,2.1-1,4.2-2.7,5.2c-0.6,0.4-1,1.1-1,1.8v5c0,1.1,0.9,2,1.9,2h37.7
			c1,0,1.9-0.9,1.9-2v-5c0-0.7-0.4-1.4-1-1.8c-1.6-1.1-2.7-3.1-2.7-5.2C47.1,27.9,48.2,25.9,49.8,24.8z M10.8,42v-5
			c0-0.2,0.1-0.4,0.3-0.5c2.1-1.3,3.3-3.8,3.3-6.5c0-2.7-1.3-5.1-3.3-6.5c-0.2-0.1-0.3-0.3-0.3-0.5V18c0-0.3,0.2-0.5,0.4-0.5h7.3
			v25.1c0,0,0,0.1,0,0.1h-7.3C10.9,42.6,10.8,42.3,10.8,42z M45.6,30c0,2.6,1.3,5.1,3.3,6.5c0.2,0.1,0.3,0.3,0.3,0.5v5
			c0,0.3-0.2,0.5-0.4,0.5h-29c0,0,0,0,0-0.1V17.4h28.9c0.2,0,0.4,0.2,0.4,0.5V23c0,0.2-0.1,0.4-0.3,0.5C46.9,24.9,45.6,27.4,45.6,30
			z"/>
		<polygon points="24,33.3 25.2,33.3 25.2,30.6 27.4,30.6 27.4,29.5 25.2,29.5 25.2,27.7 27.8,27.7 27.8,26.7 24,26.7 		"/>
		<path d="M32.8,32.2v-0.5c0-0.4-0.1-0.7-0.2-1c-0.2-0.3-0.4-0.5-0.7-0.6c0.3-0.2,0.5-0.3,0.7-0.6c0.2-0.2,0.2-0.5,0.2-0.9
			c0-0.6-0.2-1.1-0.6-1.4c-0.4-0.3-0.9-0.5-1.6-0.5h-2v6.6h1.2v-2.6h0.9c0.3,0,0.5,0.1,0.7,0.3c0.2,0.2,0.2,0.4,0.2,0.8v0.5
			c0,0.2,0,0.4,0,0.6c0,0.2,0.1,0.4,0.2,0.5h1.2v-0.1c-0.1-0.1-0.2-0.2-0.2-0.4C32.8,32.6,32.8,32.4,32.8,32.2z M31.3,29.4
			c-0.2,0.2-0.4,0.2-0.7,0.2h-0.8v-1.9h0.9c0.3,0,0.6,0.1,0.7,0.3c0.2,0.2,0.2,0.4,0.2,0.7C31.6,29,31.5,29.2,31.3,29.4z"/>
		<polygon points="35,30.4 37.2,30.4 37.2,29.4 35,29.4 35,27.7 37.6,27.7 37.6,26.7 33.9,26.7 33.9,33.3 37.6,33.3 37.6,32.3 
			35,32.3 		"/>
		<polygon points="39.6,30.4 41.8,30.4 41.8,29.4 39.6,29.4 39.6,27.7 42.2,27.7 42.2,26.7 38.4,26.7 38.4,33.3 42.2,33.3 
			42.2,32.3 39.6,32.3 		"/>
	</g>
</g>
</svg>
