<?xml version="1.0" encoding="utf-8"?>
<!-- Generator: Adobe Illustrator 25.4.8, SVG ExportableReport Plug-In . SVG Version: 6.00 Build 0)  -->
<svg version="1.1" id="Layer_1" xmlns="http://www.w3.org/2000/svg" xmlns:xlink="http://www.w3.org/1999/xlink" x="0px" y="0px"
	 viewBox="0 0 26 26" style="enable-background:new 0 0 26 26;" xml:space="preserve">
<style type="text/css">
	.st0{fill:#003366;}
	.st1{fill:#FFFFFF;}
	.st2{fill:#00CC66;}
</style>
<path class="st0" d="M25,4.3L20.5,6l1.4,1.1l-7.5,9.1l-3.2-3.7c-0.2-0.2-0.4-0.3-0.7-0.3c-0.3,0-0.5,0.1-0.7,0.3l-9.2,8.8
	c-0.2,0.2-0.2,0.6,0,0.8c0.1,0.1,0.3,0.2,0.4,0.2c0.1,0,0.3-0.1,0.4-0.2l9-8.6l3.2,3.7c0.2,0.2,0.4,0.3,0.8,0.3
	c0.3,0,0.6-0.1,0.8-0.4l7.6-9.3L24.2,9L25,4.3z"/>
</svg>
