<?xml version="1.0" encoding="utf-8"?>
<!-- Generator: Adobe Illustrator 25.4.8, SVG ExportableReport Plug-In . SVG Version: 6.00 Build 0)  -->
<svg version="1.1" id="Layer_1" xmlns="http://www.w3.org/2000/svg" xmlns:xlink="http://www.w3.org/1999/xlink" x="0px" y="0px"
	 viewBox="0 0 100 100" style="enable-background:new 0 0 100 100;" xml:space="preserve">
<style type="text/css">
	.st0{fill:#FFFFFF;}
</style>
<g>
	<g>
		<circle class="st0" cx="50" cy="50" r="48"/>
	</g>
	<g>
		<g>
			<path d="M74.1,53.4l-8.7-10.2l5-8.5l0,0c0.3-0.5,0.3-1.2,0-1.7c-0.3-0.5-0.9-0.8-1.5-0.8H46.4c-0.6,0-1.2,0.3-1.5,0.8
				c-0.3,0.5-0.3,1.2,0,1.7l4.8,8.5L41,53.4c-0.8,1-1.5,2.1-2,3.2H25.6c-0.9,0-1.7,0.8-1.7,1.7v4.2c0,0.9,0.8,1.7,1.7,1.7h1.2l0,0
				v4.2h-1.3c-0.9,0-1.7,0.8-1.7,1.7v4.2c0,0.9,0.8,1.7,1.7,1.7h1.4l0,0v4.2c0,0.9,0.8,1.7,1.7,1.7h13.7c0.9,0,1.7-0.8,1.7-1.7v-0.4
				C46,81.2,48.5,82,51,82h13c7.3,0,13.3-5.9,13.3-13.3V62C77.3,58.9,76.2,55.8,74.1,53.4z M68.9,33.9l-5,8.6H51.2l-4.8-8.5
				L68.9,33.9z M25.6,58.4h13.6v3.6c0,0.3-0.2,0.5-0.5,0.5h0l-13,0.1L25.6,58.4z M28.5,64.3h9.3h3.8c0.3,0,0.5,0.2,0.5,0.5v3
				c0,0.3-0.2,0.5-0.5,0.5h-3.4l0,0l-8.4,0h-1.2L28.5,64.3z M25.4,70.2h12.6h0.6H39v3.9c0,0.1,0,0.2,0,0.2l-13.6,0.1L25.4,70.2z
				 M28.6,80.3l-0.1-4.2h12.3h0.7c0.3,0,0.5,0.2,0.5,0.5v1.2c0,0,0,0.1,0,0.1l0,2.2L28.6,80.3z M75.6,68.7c0,6.3-5.2,11.5-11.5,11.5
				H51c-2.6,0-5.2-0.9-7.2-2.5v-1.1v-0.6c0-0.9-0.8-1.7-1.7-1.7h-0.6H41c-0.1-0.1-0.1-0.2-0.2-0.3v-3.9l0,0h0.7h0.6
				c0.9,0,1.7-0.8,1.7-1.7v-0.6v-3v-0.6c0-0.9-0.8-1.7-1.7-1.7h-0.6h-0.6l0,0v-0.6v-3.6c0-0.2,0-0.4-0.1-0.5c0,0,0-0.1-0.1-0.1
				c-0.1-0.1-0.1-0.2-0.2-0.4c0,0,0,0,0,0c0.4-1,1-1.9,1.7-2.7l8.8-10.3h12.8l8.9,10.3c1.8,2.1,2.8,4.7,2.8,7.5V68.7z"/>
			<path d="M65.2,55.3c-0.4-0.3-0.9-0.3-1.2,0.1L50.7,71.2c-0.3,0.4-0.3,0.9,0.1,1.2c0.2,0.1,0.4,0.2,0.6,0.2c0.2,0,0.5-0.1,0.7-0.3
				l13.3-15.8C65.6,56.2,65.6,55.6,65.2,55.3z"/>
			<path d="M52.7,61.9c1.7,0,3.1-1.4,3.1-3.1c0-1.7-1.4-3.1-3.1-3.1c-1.7,0-3.1,1.4-3.1,3.1C49.6,60.5,51,61.9,52.7,61.9z
				 M52.7,57.5c0.7,0,1.4,0.6,1.4,1.4c0,0.7-0.6,1.4-1.4,1.4s-1.4-0.6-1.4-1.4C51.4,58.1,52,57.5,52.7,57.5z"/>
			<path d="M62.9,66.2c-1.7,0-3.1,1.4-3.1,3.1c0,1.7,1.4,3.1,3.1,3.1c1.7,0,3.1-1.4,3.1-3.1C66,67.6,64.6,66.2,62.9,66.2z
				 M62.9,70.7c-0.7,0-1.4-0.6-1.4-1.4s0.6-1.4,1.4-1.4s1.4,0.6,1.4,1.4S63.6,70.7,62.9,70.7z"/>
		</g>
		<path d="M39.3,18.4l0.4,0.6l5.7,6.1l0,0c0.3,0.3,0.3,0.9,0,1.2s-0.9,0.3-1.2,0l0,0l-4.8-5.1v19.7c0,0.4-0.4,0.9-0.9,0.9
			s-0.9-0.4-0.9-0.9V21l-0.3,0.3L33,26.1l0,0c-0.3,0.3-0.9,0.3-1.2,0c-0.3-0.3-0.3-0.9,0-1.2l0,0l5.7-6.1l0.4-0.6
			C38.3,17.9,38.9,17.9,39.3,18.4z"/>
		<path d="M29,52.1l-0.4-0.6l-5.7-6.1l0,0c-0.3-0.3-0.3-0.9,0-1.2c0.3-0.3,0.9-0.3,1.2,0l0,0l4.8,5.1V29.6c0-0.4,0.4-0.9,0.9-0.9
			c0.4,0,0.9,0.4,0.9,0.9v19.9l0.3-0.3l4.4-4.8l0,0c0.3-0.3,0.9-0.3,1.2,0c0.3,0.3,0.3,0.9,0,1.2l0,0l-5.7,6.1l-0.4,0.6
			C30,52.6,29.5,52.6,29,52.1z"/>
	</g>
</g>
</svg>
