<?xml version="1.0" encoding="utf-8"?>
<!-- Generator: Adobe Illustrator 25.4.8, SVG ExportableReport Plug-In . SVG Version: 6.00 Build 0)  -->
<svg version="1.1" id="Layer_1" xmlns="http://www.w3.org/2000/svg" xmlns:xlink="http://www.w3.org/1999/xlink" x="0px" y="0px"
	 viewBox="0 0 60 60" style="enable-background:new 0 0 60 60;" xml:space="preserve">
<style type="text/css">
	.st0{fill:#FFFFFF;}
</style>
<g>
	<g>
		<circle class="st0" cx="30" cy="30" r="28"/>
	</g>
	<g>
		<path d="M42.8,9.2H17.2c-1.6,0-3,1.3-3,3v35.5c0,1.6,1.3,3,3,3h25.6c1.6,0,3-1.3,3-3V12.2C45.8,10.6,44.4,9.2,42.8,9.2z
			 M44.3,47.8c0,0.8-0.7,1.5-1.5,1.5H17.2c-0.8,0-1.5-0.7-1.5-1.5V12.2c0-0.8,0.7-1.5,1.5-1.5h25.6c0.8,0,1.5,0.7,1.5,1.5V47.8z"/>
		<path d="M38.2,31.7H21.8c-0.4,0-0.8,0.3-0.8,0.8s0.3,0.8,0.8,0.8h16.5c0.4,0,0.8-0.3,0.8-0.8S38.6,31.7,38.2,31.7z"/>
		<path d="M38.2,35H21.8c-0.4,0-0.8,0.3-0.8,0.8s0.3,0.8,0.8,0.8h16.5c0.4,0,0.8-0.3,0.8-0.8S38.6,35,38.2,35z"/>
		<path d="M38.2,38.2H21.8c-0.4,0-0.8,0.3-0.8,0.8s0.3,0.8,0.8,0.8h16.5c0.4,0,0.8-0.3,0.8-0.8S38.6,38.2,38.2,38.2z"/>
		<path d="M38.2,44.6h-7.5c-0.4,0-0.8,0.3-0.8,0.8s0.3,0.8,0.8,0.8h7.5c0.4,0,0.8-0.3,0.8-0.8S38.6,44.6,38.2,44.6z"/>
		<path d="M25.7,23.3c-0.4,0-0.8,0.3-0.8,0.8s0.3,0.8,0.8,0.8h0.9v2.1c0,0.4,0.3,0.8,0.8,0.8s0.8-0.3,0.8-0.8v-2.1h3.5
			c0.4,0,0.8-0.3,0.8-0.8s-0.3-0.8-0.8-0.8H28v-1.1h3.9c1.7,0,3.2-1.4,3.2-3.1S33.6,16,31.9,16h-4.2c-0.7,0-1.2,0.5-1.2,1.2v3.5
			h-0.9c-0.4,0-0.8,0.3-0.8,0.8s0.3,0.8,0.8,0.8h0.9v1.1H25.7z M28,17.5h3.9c0.9,0,1.7,0.7,1.7,1.6s-0.7,1.6-1.7,1.6H28V17.5z"/>
	</g>
</g>
</svg>
