<?xml version="1.0" encoding="utf-8"?>
<!-- Generator: Adobe Illustrator 25.4.8, SVG ExportableReport Plug-In . SVG Version: 6.00 Build 0)  -->
<svg version="1.1" id="Layer_1" xmlns="http://www.w3.org/2000/svg" xmlns:xlink="http://www.w3.org/1999/xlink" x="0px" y="0px"
	 viewBox="0 0 60 60" style="enable-background:new 0 0 60 60;" xml:space="preserve">
<style type="text/css">
	.st0{fill:#FFFFFF;}
</style>
<g>
	<g>
		<circle class="st0" cx="30" cy="30" r="28"/>
	</g>
	<g>
		<path d="M34.8,21.9h-9.5c-1.2,0-2.2,1-2.2,2.2v12.1c0,1.2,1,2.2,2.2,2.2h0.2v9.8c0,1.2,1,2.2,2.2,2.2h4.9c1.2,0,2.2-1,2.2-2.2
			v-9.8h0.1c1.2,0,2.2-1,2.2-2.2V24C36.9,22.8,36,21.9,34.8,21.9z M26.1,36.8h-0.9c-0.4,0-0.7-0.3-0.7-0.7V24c0-0.4,0.3-0.7,0.7-0.7
			h9.5c0.4,0,0.7,0.3,0.7,0.7v12.1c0,0.4-0.3,0.7-0.7,0.7h-0.8c-0.4,0-0.7,0.3-0.7,0.7v10.5c0,0.4-0.3,0.7-0.7,0.7h-4.9
			c-0.4,0-0.7-0.3-0.7-0.7V37.6C26.9,37.2,26.5,36.8,26.1,36.8z"/>
		<path d="M30,20.7c3,0,5.5-2.4,5.5-5.5S33.1,9.8,30,9.8s-5.5,2.4-5.5,5.5S27,20.7,30,20.7z M26,15.2c0-2.2,1.8-4,4-4
			c2.2,0,4,1.8,4,4s-1.8,4-4,4C27.8,19.2,26,17.4,26,15.2z"/>
	</g>
</g>
</svg>
