<?xml version="1.0" encoding="utf-8"?>
<!-- Generator: Adobe Illustrator 25.4.8, SVG ExportableReport Plug-In . SVG Version: 6.00 Build 0)  -->
<svg version="1.1" id="Layer_1" xmlns="http://www.w3.org/2000/svg" xmlns:xlink="http://www.w3.org/1999/xlink" x="0px" y="0px"
	 viewBox="0 0 60 60" style="enable-background:new 0 0 60 60;" xml:space="preserve">
<style type="text/css">
	.st0{fill:#FFFFFF;}
</style>
<g>
	<g>
		<circle class="st0" cx="30" cy="30" r="28"/>
	</g>
	<g>
		<path d="M48.6,37.1l-2.9-14c-0.2-0.7-0.8-1.3-1.6-1.3h-8.8c-0.8,0-1.4,0.5-1.6,1.3l-3,14c-0.1,0.5,0,1,0.3,1.3
			c0.3,0.4,0.8,0.6,1.2,0.6h2.7v9c0,1.2,1,2.2,2.2,2.2h4.9c1.2,0,2.2-1,2.2-2.2v-9H47c0.5,0,0.9-0.2,1.2-0.6
			C48.6,38.1,48.7,37.6,48.6,37.1z M32.4,37.6c0,0-0.1,0-0.1,0c0-0.1,0-0.1,0-0.1l3-14c0-0.1,0.1-0.1,0.1-0.1h8.8
			c0.1,0,0.1,0,0.2,0.1l2.9,14c0,0,0,0.1,0,0.1c0,0-0.1,0.1-0.1,0.1h-4.1v10.5c0,0.4-0.3,0.7-0.7,0.7h-4.9c-0.4,0-0.7-0.3-0.7-0.7
			V37.6H32.4z"/>
		<path d="M39.7,20.7c3,0,5.5-2.4,5.5-5.5s-2.4-5.5-5.5-5.5c-3,0-5.5,2.4-5.5,5.5S36.7,20.7,39.7,20.7z M35.7,15.2c0-2.2,1.8-4,4-4
			c2.2,0,4,1.8,4,4s-1.8,4-4,4C37.5,19.2,35.7,17.4,35.7,15.2z"/>
		<path d="M23.1,21.9h-9.5c-1.2,0-2.2,1-2.2,2.2v12.1c0,1.2,1,2.2,2.2,2.2h0.2v9.8c0,1.2,1,2.2,2.2,2.2h4.9c1.2,0,2.2-1,2.2-2.2
			v-9.8h0.1c1.2,0,2.2-1,2.2-2.2V24C25.3,22.8,24.3,21.9,23.1,21.9z M14.5,36.8h-0.9c-0.4,0-0.7-0.3-0.7-0.7V24
			c0-0.4,0.3-0.7,0.7-0.7h9.5c0.4,0,0.7,0.3,0.7,0.7v12.1c0,0.4-0.3,0.7-0.7,0.7h-0.8c-0.4,0-0.7,0.3-0.7,0.7v10.5
			c0,0.4-0.3,0.7-0.7,0.7h-4.9c-0.4,0-0.7-0.3-0.7-0.7V37.6C15.2,37.2,14.9,36.8,14.5,36.8z"/>
		<path d="M18.4,20.7c3,0,5.5-2.4,5.5-5.5s-2.4-5.5-5.5-5.5s-5.5,2.4-5.5,5.5S15.3,20.7,18.4,20.7z M14.3,15.2c0-2.2,1.8-4,4-4
			s4,1.8,4,4s-1.8,4-4,4S14.3,17.4,14.3,15.2z"/>
	</g>
</g>
</svg>
