<?xml version="1.0" encoding="utf-8"?>
<!-- Generator: Adobe Illustrator 25.4.8, SVG ExportableReport Plug-In . SVG Version: 6.00 Build 0)  -->
<svg version="1.1" id="Layer_1" xmlns="http://www.w3.org/2000/svg" xmlns:xlink="http://www.w3.org/1999/xlink" x="0px" y="0px"
	 viewBox="0 0 60 60" style="enable-background:new 0 0 60 60;" xml:space="preserve">
<style type="text/css">
	.st0{fill:#FFFFFF;}
</style>
<g>
	<g>
		<circle class="st0" cx="30" cy="30" r="28"/>
	</g>
	<path d="M46,44.8L31.2,30L46,15.2c0.2-0.2,0.2-0.4,0.2-0.6c0-0.2-0.1-0.4-0.2-0.6c-0.2-0.2-0.4-0.2-0.6-0.2c0,0,0,0,0,0
		c-0.2,0-0.4,0.1-0.6,0.2L30,28.8L15.2,14c-0.3-0.3-0.9-0.3-1.2,0s-0.3,0.9,0,1.2L28.8,30L14,44.8c-0.3,0.3-0.3,0.9,0,1.2
		s0.9,0.3,1.2,0L30,31.2L44.8,46c0.2,0.2,0.4,0.2,0.6,0.2s0.4-0.1,0.6-0.2c0.2-0.2,0.2-0.4,0.2-0.6C46.2,45.2,46.2,45,46,44.8z"/>
</g>
</svg>
