<?xml version="1.0" encoding="utf-8"?>
<!-- Generator: Adobe Illustrator 25.4.8, SVG ExportableReport Plug-In . SVG Version: 6.00 Build 0)  -->
<svg version="1.1" id="Layer_1" xmlns="http://www.w3.org/2000/svg" xmlns:xlink="http://www.w3.org/1999/xlink" x="0px" y="0px"
	 viewBox="0 0 100 100" style="enable-background:new 0 0 100 100;" xml:space="preserve">
<style type="text/css">
	.st0{fill:#FFFFFF;}
</style>
<g>
	<g>
		<circle class="st0" cx="50" cy="50" r="48"/>
	</g>
	<g>
		<path d="M64.2,69H39.1c-2.8,0-5.1-2.3-5.1-5.1s2.3-5.1,5.1-5.1h17.6c2.1,0,3.9-1.5,4.3-3.5l7.2-32.6c0.6-2.8,3.3-4.5,6.1-3.9
			c1.4,0.3,2.6,1.1,3.3,2.3c0.7,1.1,1,2.5,0.7,3.9l-7.7,34.8c0,0.1-0.1,0.2-0.1,0.3l-1.5,5.3C68.5,67.5,66.5,69,64.2,69z M39.1,60.5
			c-1.8,0-3.3,1.5-3.3,3.3s1.5,3.3,3.3,3.3h25.1c1.5,0,2.8-1,3.2-2.4l1.5-5.5l7.7-34.8c0.2-0.9,0-1.8-0.4-2.5
			c-0.5-0.8-1.2-1.3-2.1-1.5c-1.9-0.4-3.7,0.7-4.1,2.5l-7.2,32.6c-0.6,2.8-3.2,4.9-6.1,4.9H39.1z"/>
		<path d="M59.9,81.4H44c-0.7,0-1.3-0.3-1.6-0.9c-0.4-0.6-0.4-1.2-0.2-1.8L47,67.3h9.8l4.9,11.4c0.3,0.6,0.2,1.3-0.2,1.8
			C61.2,81.1,60.5,81.4,59.9,81.4z M48.2,69l-4.4,10.4c0,0.1,0,0.1,0,0.2s0.1,0.1,0.2,0.1h15.9c0.1,0,0.1-0.1,0.2-0.1
			c0,0,0-0.1,0-0.2L55.6,69H48.2z"/>
		<path d="M60.6,32.8c-4.1,0-7.4-3.3-7.4-7.4c0-4.1,3.3-7.4,7.4-7.4c4.1,0,7.4,3.3,7.4,7.4C68,29.5,64.7,32.8,60.6,32.8z M60.6,19.8
			c-3.1,0-5.6,2.5-5.6,5.6s2.5,5.6,5.6,5.6s5.6-2.5,5.6-5.6S63.7,19.8,60.6,19.8z"/>
		<path d="M27.7,82c-0.3,0-0.6,0-0.9-0.1l-2.8-0.8c-0.9-0.2-1.6-0.8-2.1-1.6c-0.5-0.8-0.6-1.7-0.3-2.6l6.5-23.6
			c0.3-1,1.1-1.9,2.1-2.3c0.4-0.2,0.8-0.2,1.2-0.2h3.1c-0.4-0.6-0.6-1.2-0.6-2c0-2.1,1.7-3.8,3.8-3.8h8.4c1,0,1.8-0.6,2.2-1.5
			l3.5-9.2c1-2.6,3.8-4.2,6.5-3.6l2.7,0.6c3.7,0.8,6,4.4,5.2,8.1l-3.5,16.5c-0.6,2.7-3,4.6-5.7,4.6H38.3c-1.2,0-2.3,0.8-2.7,2
			l-4.6,16.9C30.7,81,29.3,82,27.7,82z M31.4,52.5c-0.2,0-0.4,0-0.6,0.1c-0.5,0.2-0.9,0.6-1,1.1l-6.5,23.6c-0.1,0.4-0.1,0.9,0.2,1.3
			s0.6,0.7,1,0.8l2.8,0.8c0.9,0.2,1.8-0.3,2.1-1.2L34,62.1c0.5-2,2.3-3.3,4.4-3.3h18.7c1.9,0,3.5-1.3,4-3.2l3.5-16.5
			c0.6-2.7-1.2-5.4-3.9-6l-2.7-0.6c-1.9-0.4-3.8,0.6-4.4,2.4l-2,5.5l3-3.2c0.3-0.4,0.9-0.4,1.3,0c0.4,0.3,0.4,0.9,0,1.3l-6.3,6.9
			c0,0,0,0,0,0c-0.8,1-2,1.5-3.2,1.5h-8.4c-1.1,0-2,0.9-2,2c0,1.1,0.9,2,2,2h12c0.5,0,1-0.2,1.4-0.6l6.5-6.6c0.3-0.3,0.9-0.3,1.3,0
			c0.3,0.3,0.3,0.9,0,1.3l-6.5,6.6c-0.7,0.7-1.7,1.1-2.7,1.1L31.4,52.5L31.4,52.5z"/>
	</g>
</g>
</svg>
