<?xml version="1.0" encoding="utf-8"?>
<!-- Generator: Adobe Illustrator 26.4.1, SVG ExportableReport Plug-In . SVG Version: 6.00 Build 0)  -->
<svg version="1.1" id="Layer_1" xmlns="http://www.w3.org/2000/svg" xmlns:xlink="http://www.w3.org/1999/xlink" x="0px" y="0px"
	 viewBox="0 0 29.4 26" style="enable-background:new 0 0 29.4 26;" xml:space="preserve">
<style type="text/css">
	.st0{fill:#003366;}
	.st1{fill:#003366;stroke:#000000;stroke-width:1.1417;stroke-linecap:round;stroke-linejoin:round;stroke-miterlimit:10;}
	.st2{fill:#003366;stroke:#000000;stroke-width:1.1693;stroke-linecap:round;stroke-linejoin:round;stroke-miterlimit:10;}
</style>
<g>
	<g>
		<g>
			<g>
				<path class="st0" d="M28.5,21.4c0,0.3-0.2,0.5-0.5,0.6c0,0,0,0-0.1,0l-6.1,0.3c-0.4,0-0.6-0.3-0.6-0.6l0.1-6.2v0
					c0-0.3,0.3-0.5,0.6-0.5c0.3,0,0.6,0.2,0.6,0.5v0l-0.1,5c2-2,3.1-4.7,3.1-7.5c0-6-4.9-10.9-10.9-10.9c-0.3,0-0.6-0.3-0.6-0.6
					C14,1.3,14.3,1,14.6,1c6.6,0,12,5.4,12,12c0,3-1.1,5.9-3.1,8l4.4-0.2c0,0,0.1,0,0.1,0C28.3,20.8,28.5,21.1,28.5,21.4z"/>
				<path class="st0" d="M28,21.9L28,21.9L28,21.9C28,21.9,28,21.9,28,21.9z"/>
			</g>
		</g>
	</g>
	<path class="st0" d="M15.1,24.4c0,0.3-0.3,0.6-0.6,0.6c-6.6,0-12-5.4-12-12c0-3.2,1.2-6.1,3.4-8.4L1.4,4.7c0,0,0,0,0,0
		c-0.3,0-0.6-0.3-0.6-0.6c0-0.3,0.3-0.6,0.6-0.6l6.2-0.1c0.3,0,0.6,0.3,0.6,0.6l-0.3,6.1v0c0,0,0,0,0,0.1c0,0.3-0.3,0.5-0.6,0.5
		c-0.3,0-0.6-0.3-0.6-0.6h0l0.3-5.1C4.9,7.2,3.7,10,3.7,13c0,6,4.9,10.9,10.9,10.9C14.9,23.9,15.1,24.1,15.1,24.4z"/>
</g>
</svg>
