<?xml version="1.0" encoding="utf-8"?>
<!-- Generator: Adobe Illustrator 25.4.8, SVG ExportableReport Plug-In . SVG Version: 6.00 Build 0)  -->
<svg version="1.1" id="Layer_1" xmlns="http://www.w3.org/2000/svg" xmlns:xlink="http://www.w3.org/1999/xlink" x="0px" y="0px"
	 viewBox="0 0 100 100" style="enable-background:new 0 0 100 100;" xml:space="preserve">
<style type="text/css">
	.st0{fill:#FFFFFF;}
</style>
<g>
	<g>
		<circle class="st0" cx="50" cy="50" r="48"/>
	</g>
	<path d="M55.4,18H42.1c-2.4,0-4.4,2-4.4,4.4v26.2h-8.4c-0.7,0-1.2,0.6-1.2,1.2c0,0.7,0.6,1.2,1.2,1.2h8.4v13.5h-8.4
		c-0.7,0-1.2,0.6-1.2,1.2c0,0.7,0.6,1.2,1.2,1.2h8.4v13.7c0,0.7,0.6,1.2,1.2,1.2c0.7,0,1.2-0.6,1.2-1.2V67h11.7
		c0.7,0,1.2-0.6,1.2-1.2s-0.6-1.2-1.2-1.2H40.2V51.1h15.2c9.1,0,16.5-7.4,16.5-16.5C72,25.4,64.6,18,55.4,18z M69.5,34.5
		c0,7.7-6.3,14-14,14H40.2V22.4c0-1,0.8-1.9,1.9-1.9h13.3C63.2,20.5,69.5,26.8,69.5,34.5z"/>
</g>
</svg>
