<?xml version="1.0" encoding="utf-8"?>
<!-- Generator: Adobe Illustrator 25.4.8, SVG ExportableReport Plug-In . SVG Version: 6.00 Build 0)  -->
<svg version="1.1" id="Layer_1" xmlns="http://www.w3.org/2000/svg" xmlns:xlink="http://www.w3.org/1999/xlink" x="0px" y="0px"
	 viewBox="0 0 26 26" style="enable-background:new 0 0 26 26;" xml:space="preserve">
<style type="text/css">
	.st0{fill:#003366;}
	.st1{fill:#FFFFFF;}
	.st2{fill:#00CC66;}
</style>
<g>
	<path class="st0" d="M19.7,20.7H9.9c-1,0-1.9-0.7-2.2-1.7l-0.6-2.2L4,3.2C3.8,1.9,4.6,0.7,5.8,0.5c0.6-0.1,1.2,0,1.7,0.3
		c0.5,0.3,0.9,0.8,1,1.4L11.3,15c0.2,0.7,0.8,1.2,1.5,1.2h6.9c1.2,0,2.3,1,2.3,2.3S21,20.7,19.7,20.7z M6.3,1.6c-0.1,0-0.2,0-0.2,0
		c-0.6,0.1-1,0.7-0.9,1.3l3,13.7l0.6,2.1c0.1,0.5,0.6,0.8,1,0.8h9.9c0.6,0,1.1-0.5,1.1-1.1s-0.5-1.1-1.1-1.1h-6.9
		c-1.3,0-2.4-0.9-2.6-2.1v0L7.3,2.4C7.2,1.9,6.8,1.6,6.3,1.6z"/>
	<path class="st0" d="M17.8,25.6h-6.3c-0.3,0-0.7-0.2-0.9-0.5c-0.2-0.3-0.2-0.6-0.1-1l2-4.7h4.2l2,4.7c0.1,0.3,0.1,0.7-0.1,1
		C18.5,25.4,18.2,25.6,17.8,25.6z M11.8,24.4h5.7L16,20.7h-2.6L11.8,24.4z"/>
</g>
</svg>
