<?xml version="1.0" encoding="utf-8"?>
<!-- Generator: Adobe Illustrator 25.4.8, SVG ExportableReport Plug-In . SVG Version: 6.00 Build 0)  -->
<svg version="1.1" id="Layer_1" xmlns="http://www.w3.org/2000/svg" xmlns:xlink="http://www.w3.org/1999/xlink" x="0px" y="0px"
	 viewBox="0 0 60 60" style="enable-background:new 0 0 60 60;" xml:space="preserve">
<style type="text/css">
	.st0{fill:#FFFFFF;}
</style>
<g>
	<g>
		<circle class="st0" cx="30" cy="30" r="28"/>
	</g>
	<path d="M48.1,26H37.2c0-0.1-0.1-0.2-0.2-0.2l-6.4-6.7c-1.3-1.4-3.1-2.1-4.9-2.1H14.4v-0.1c0-0.5-0.4-1-1-1h-3.2c-0.5,0-1,0.4-1,1
		v17.5c0,0.5,0.4,1,1,1h3.2c0.5,0,1-0.4,1-1v-0.9c1,1.1,2.8,2.7,4.6,3.1v4.8c0,1.5,1.2,2.7,2.6,2.7h26.5c1.4,0,2.6-1.2,2.6-2.7V28.8
		C50.8,27.3,49.6,26,48.1,26z M12.9,33.8h-2.1V17.4h2.1V33.8z M14.8,31.7c-0.1-0.1-0.2-0.2-0.4-0.2V18.5h11.4c1.4,0,2.8,0.6,3.8,1.7
		l5.6,5.9h-5.9l-3.1-3.3c-0.3-0.3-0.8-0.3-1.1,0c-0.3,0.3-0.3,0.8,0,1.1l3.2,3.4c0.1,0.1,0.2,0.2,0.3,0.3l3.6,3.8
		c0.5,0.6,0.5,1.5,0,2.1c-0.3,0.3-0.6,0.4-0.9,0.4c-0.4,0-0.7-0.1-0.9-0.4l-7.2-7.6c-0.2-0.3-0.7-0.3-1-0.1
		c-1.2,0.8-2.7,0.7-3.9-0.2l-0.2-0.1c-0.3-0.3-0.8-0.2-1.1,0.1c-0.3,0.3-0.2,0.8,0.1,1.1l0.2,0.1c0.5,0.4,1.1,0.7,1.7,0.8V35
		C17.4,34.5,15.5,32.5,14.8,31.7z M26.3,31.3l2.9,3c0.5,0.6,1.3,0.9,2,0.9c0,0,0,0,0,0c0.8,0,1.5-0.3,2-0.9c0.8-0.9,1-2.2,0.6-3.3
		h9.7c0.2,1.3,1.2,2.3,2.4,2.6v2.6c-1.3,0.3-2.4,1.5-2.5,3H26.3c-0.1-1.5-1.1-2.7-2.5-3v-2.4C25.1,33.6,26,32.6,26.3,31.3z
		 M49.2,41.4c0,0.7-0.5,1.2-1.1,1.2H21.6c-0.6,0-1.1-0.5-1.1-1.2V27.7c0.6,0,1.3-0.2,1.9-0.5l2.5,2.6c0,0.1,0,0.2,0,0.2v0.6
		c0,1-0.8,1.9-1.7,1.9c-0.4,0-0.8,0.3-0.8,0.8V37c0,0.4,0.3,0.8,0.8,0.8c1,0,1.7,0.8,1.7,1.9v0.5c0,0.4,0.3,0.8,0.8,0.8h18.6
		c0.4,0,0.8-0.3,0.8-0.8v-0.5c0-1,0.8-1.9,1.7-1.9c0.4,0,0.8-0.3,0.8-0.8V33c0-0.4-0.3-0.8-0.8-0.8c-1,0-1.7-0.8-1.7-1.9v-0.1
		c0-0.4-0.3-0.8-0.8-0.8H32.7c0,0-0.1,0-0.1,0l-1.9-2h17.4c0.6,0,1.1,0.5,1.1,1.2V41.4z"/>
</g>
</svg>
