<?xml version="1.0" encoding="utf-8"?>
<!-- Generator: Adobe Illustrator 25.4.8, SVG ExportableReport Plug-In . SVG Version: 6.00 Build 0)  -->
<svg version="1.1" id="Layer_1" xmlns="http://www.w3.org/2000/svg" xmlns:xlink="http://www.w3.org/1999/xlink" x="0px" y="0px"
	 viewBox="0 0 26 26" style="enable-background:new 0 0 26 26;" xml:space="preserve">
<style type="text/css">
	.st0{fill:#003366;}
	.st1{fill:#FFFFFF;}
	.st2{fill:#00CC66;}
</style>
<g>
	<path class="st0" d="M24.9,10.4c0.4-0.2,0.7-0.7,0.7-1.1V6.6c0-0.7-0.6-1.3-1.3-1.3H6.5c0,0,0,0,0,0s0,0,0,0H1.7
		C1,5.3,0.4,5.9,0.4,6.6v2.7c0,0.5,0.2,0.9,0.7,1.1C2,10.9,2.6,11.9,2.6,13c0,1.1-0.6,2.1-1.5,2.6c-0.4,0.2-0.7,0.7-0.7,1.1v2.7
		c0,0.7,0.6,1.3,1.3,1.3h22.6c0.7,0,1.3-0.6,1.3-1.3v-2.7c0-0.5-0.3-0.9-0.7-1.1c-0.9-0.5-1.5-1.5-1.5-2.6
		C23.4,11.9,24,10.9,24.9,10.4z M22.2,13c0,1.5,0.8,2.9,2.1,3.6c0,0,0.1,0.1,0.1,0.1v2.7c0,0,0,0.1-0.1,0.1H7.1v-1.3
		c0-0.3-0.3-0.6-0.6-0.6s-0.6,0.3-0.6,0.6v1.3H1.7c0,0-0.1,0-0.1-0.1v-2.7c0,0,0-0.1,0.1-0.1C3,15.9,3.8,14.5,3.8,13
		c0-1.5-0.8-2.9-2.1-3.6c0,0-0.1-0.1-0.1-0.1V6.6c0,0,0-0.1,0.1-0.1h4.2v0.9C5.9,7.7,6.2,8,6.5,8s0.6-0.3,0.6-0.6V6.5h17.2
		c0,0,0.1,0,0.1,0.1v2.7c0,0,0,0.1-0.1,0.1C23,10.1,22.2,11.5,22.2,13z"/>
	<path class="st0" d="M6.5,10.4c-0.3,0-0.6,0.3-0.6,0.6v3.6c0,0.3,0.3,0.6,0.6,0.6s0.6-0.3,0.6-0.6V11C7.1,10.7,6.8,10.4,6.5,10.4z"
		/>
</g>
</svg>
