<?xml version="1.0" encoding="utf-8"?>
<!-- Generator: Adobe Illustrator 25.4.8, SVG ExportableReport Plug-In . SVG Version: 6.00 Build 0)  -->
<svg version="1.1" id="Layer_1" xmlns="http://www.w3.org/2000/svg" xmlns:xlink="http://www.w3.org/1999/xlink" x="0px" y="0px"
	 viewBox="0 0 60 60" style="enable-background:new 0 0 60 60;" xml:space="preserve">
<style type="text/css">
	.st0{fill:#FFFFFF;}
</style>
<g>
	<g>
		<circle class="st0" cx="30" cy="30" r="28"/>
	</g>
	<g>
		<path d="M38.9,37.1l-2.9-14c-0.2-0.7-0.8-1.3-1.6-1.3h-8.8c-0.8,0-1.4,0.5-1.6,1.3l-3,14c-0.1,0.5,0,1,0.3,1.3
			c0.3,0.4,0.8,0.6,1.3,0.6h2.7v9c0,1.2,1,2.2,2.2,2.2h4.9c1.2,0,2.2-1,2.2-2.2v-9h2.7c0.5,0,0.9-0.2,1.2-0.6
			C38.9,38.1,39,37.6,38.9,37.1z M22.7,37.6c0,0-0.1,0-0.1,0c0-0.1,0-0.1,0-0.1l3-14c0-0.1,0.1-0.1,0.1-0.1h8.8c0.1,0,0.1,0,0.2,0.1
			l2.9,14c0,0,0,0.1,0,0.1c0,0-0.1,0.1-0.1,0.1h-4.1v10.5c0,0.4-0.3,0.7-0.7,0.7h-4.9c-0.4,0-0.7-0.3-0.7-0.7V37.6H22.7z"/>
		<path d="M30,20.7c3,0,5.5-2.4,5.5-5.5S33,9.8,30,9.8c-3,0-5.5,2.4-5.5,5.5S27,20.7,30,20.7z M26,15.2c0-2.2,1.8-4,4-4
			c2.2,0,4,1.8,4,4s-1.8,4-4,4C27.8,19.2,26,17.4,26,15.2z"/>
	</g>
</g>
</svg>
