<?xml version="1.0" encoding="utf-8"?>
<!-- Generator: Adobe Illustrator 25.4.8, SVG ExportableReport Plug-In . SVG Version: 6.00 Build 0)  -->
<svg version="1.1" id="Layer_1" xmlns="http://www.w3.org/2000/svg" xmlns:xlink="http://www.w3.org/1999/xlink" x="0px" y="0px"
	 viewBox="0 0 60 60" style="enable-background:new 0 0 60 60;" xml:space="preserve">
<style type="text/css">
	.st0{fill:#FFFFFF;}
</style>
<g>
	<g>
		<circle class="st0" cx="30" cy="30" r="28"/>
	</g>
	<g>
		<path d="M47.9,19.5c-0.2-0.4-0.7-0.5-1-0.3c-0.4,0.2-0.5,0.7-0.3,1c1.7,2.9,2.6,6.3,2.6,9.7c0,10.6-8.6,19.2-19.2,19.2
			S10.8,40.6,10.8,30S19.4,10.8,30,10.8c3.1,0,6.2,0.8,9,2.2c0.4,0.2,0.8,0.1,1-0.3s0.1-0.8-0.3-1c-3-1.6-6.3-2.4-9.7-2.4
			C18.6,9.2,9.2,18.6,9.2,30S18.6,50.8,30,50.8S50.8,41.4,50.8,30C50.8,26.3,49.8,22.7,47.9,19.5z"/>
		<path d="M19.3,25.6c-0.3-0.3-0.8-0.3-1.1-0.1c-0.3,0.3-0.3,0.8-0.1,1.1l11.8,13c0.1,0.2,0.3,0.2,0.6,0.2c0,0,0.1,0,0.1,0
			c0.2,0,0.5-0.2,0.6-0.4l14.8-27.2c0.2-0.4,0.1-0.8-0.3-1s-0.8-0.1-1,0.3L30.3,37.9L19.3,25.6z"/>
	</g>
</g>
</svg>
