<?xml version="1.0" encoding="utf-8"?>
<!-- Generator: Adobe Illustrator 25.4.8, SVG ExportableReport Plug-In . SVG Version: 6.00 Build 0)  -->
<svg version="1.1" id="Layer_1" xmlns="http://www.w3.org/2000/svg" xmlns:xlink="http://www.w3.org/1999/xlink" x="0px" y="0px"
	 viewBox="0 0 26 26" style="enable-background:new 0 0 26 26;" xml:space="preserve">
<style type="text/css">
	.st0{fill:#003366;}
	.st1{fill:#FFFFFF;}
	.st2{fill:#00CC66;}
</style>
<g>
	<g>
		<path class="st2" d="M16.9,4.3l-0.4,2.1h0.8c1.4,0,3,0.5,4,1.3c1.4,1.2,1.7,2.8,1.7,4c0,3.7-2,5.6-3.6,6.5c-1.7,1-3.4,1.2-4.9,1.2
			h-0.8l-0.5,2.1H9.1l0.5-2.1H8.7c-1.8,0-3.4-0.6-4.3-1.5c-1-1-1.4-2.2-1.4-3.6C3,11.6,4.4,9.3,6.1,8C7,7.4,8.7,6.4,11.5,6.4h0.8
			l0.4-2.1H16.9z M11.3,9.5c-1.1,0-1.8,0.4-2.3,0.8c-1.1,0.8-1.7,2.5-1.7,3.9c0,0.6,0.1,1.2,0.7,1.7c0.5,0.4,1.2,0.6,1.9,0.6h0.5
			l1.5-7H11.3z M14.2,16.5h0.5c0.8,0,1.8-0.3,2.4-0.8c1-0.8,1.7-2.2,1.7-3.8c0-0.7-0.1-1.3-0.7-1.8c-0.5-0.4-1.2-0.6-1.8-0.6h-0.5
			L14.2,16.5z"/>
	</g>
</g>
</svg>
